<?xml version="1.0" encoding="UTF-8" standalone="no"?>
<svg
   width="1043.5221"
   height="425"
   version="1.1"
   id="svg6"
   sodipodi:docname="netl_logo_light.svg"
   inkscape:version="1.4.2 (f4327f4, 2025-05-13)"
   inkscape:export-filename="netl_logo.png"
   inkscape:export-xdpi="96"
   inkscape:export-ydpi="96"
   xmlns:inkscape="http://www.inkscape.org/namespaces/inkscape"
   xmlns:sodipodi="http://sodipodi.sourceforge.net/DTD/sodipodi-0.dtd"
   xmlns="http://www.w3.org/2000/svg"
   xmlns:svg="http://www.w3.org/2000/svg">
  <defs
     id="defs6" />
  <sodipodi:namedview
     id="namedview6"
     pagecolor="#ffffff"
     bordercolor="#000000"
     borderopacity="0.25"
     inkscape:showpageshadow="2"
     inkscape:pageopacity="0.0"
     inkscape:pagecheckerboard="0"
     inkscape:deskcolor="#d1d1d1"
     inkscape:zoom="0.64375188"
     inkscape:cx="290.48459"
     inkscape:cy="316.89228"
     inkscape:window-width="1920"
     inkscape:window-height="991"
     inkscape:window-x="-9"
     inkscape:window-y="-9"
     inkscape:window-maximized="1"
     inkscape:current-layer="layer1"
     inkscape:export-bgcolor="#ffffffff" />
  <g
     inkscape:groupmode="layer"
     id="layer1"
     inkscape:label="name"
     style="display:inline"
     transform="translate(-38.377229,-43.499999)">
    <path
       d="M 614.43872,158.24523 H 665.2121 V 367.61079 H 617.42539 L 522.44928,242.46932 V 367.61079 H 471.37723 V 158.24523 h 48.08538 l 95.27477,126.03747 z m 166.2733,45.99471 q 39.42404,0 60.62939,23.29603 21.20536,23.29602 21.20536,63.91473 0,6.27201 -0.29867,9.55735 H 749.94932 q 3.88267,13.73868 13.44001,21.20535 9.55734,7.16801 23.29603,7.16801 10.45334,0 20.01068,-4.18134 9.85601,-4.18133 17.92002,-12.24534 l 27.77603,27.77603 q -12.54401,14.03735 -30.46403,21.50402 -17.62135,7.16801 -40.02138,7.16801 -25.98402,0 -45.39738,-10.15468 -19.41335,-10.15468 -29.8667,-28.67203 -10.15468,-18.51735 -10.15468,-43.00805 0,-24.78936 10.45335,-43.60538 10.45334,-19.11469 29.56803,-29.26936 19.11469,-10.45335 44.20272,-10.45335 z m 30.16536,68.39474 q 0,-14.03734 -8.36267,-22.40002 -8.06401,-8.66134 -21.50403,-8.66134 -12.54401,0 -21.20535,8.36267 -8.36268,8.36268 -11.05068,22.69869 z m 187.47908,86.61343 q -8.96001,5.07734 -20.60802,8.06401 -11.64802,2.688 -23.5947,2.688 -23.89336,0 -38.82671,-13.73868 -14.63468,-13.73868 -14.63468,-37.93071 v -69.29074 h -22.40002 v -35.2427 h 22.40002 v -44.80005 h 52.86406 v 44.80005 h 41.81338 v 35.2427 h -41.81338 v 60.92807 q 0,17.02402 14.03735,17.02402 8.66134,0 20.60802,-5.37601 z m 30.38004,-213.24823 h 53.1628 v 221.61091 h -53.1628 z"
       id="text1"
       style="font-weight:bold;font-size:298.667px;line-height:0;font-family:Gontserrat;-inkscape-font-specification:'Gontserrat Bold';letter-spacing:3.5px;fill:#ffffff"
       aria-label="Netl" />
  </g>
  <g
     id="g1"
     inkscape:label="design1"
     style="display:inline"
     transform="matrix(0.99816597,0,0,0.94905952,-23.855767,-32.471467)">
    <g
       inkscape:groupmode="layer"
       id="layer2"
       inkscape:label="leaf">
      <path
         fill="#68d675"
         d="m 23.8996,162.832 c 26.98351,-0.32066 109.23603,67.26988 113.26082,71.04855 -1.46675,7.10438 -4.70134,18.76331 -4.8357,31.80927 -0.081,7.86301 7.59281,16.53904 18.28494,7.65835 7.23599,-6.01009 12.54688,-13.19016 16.55708,-19.24019 7.37507,7.72154 45.74297,48.7389 50.47126,54.60002 8.67483,10.86835 39.59463,51.41942 40.403,86.698 -0.035,22.881 -13.91705,56.92418 -27.07735,64.25056 -5.33907,-11.64632 -11.74283,-25.53193 -18.5963,-37.78195 -7.64207,-13.65958 -15.91224,-27.00854 -25.05267,-39.71436 -10.2812,-14.29158 -16.98065,-23.10714 -37.00789,-49.22794 -20.02724,-26.1208 -28.63996,-21.04327 -8.47591,5.61208 20.16405,26.65535 25.39998,33.9466 36.0856,49.215 10.68563,15.2684 19.95233,27.46 28.09039,42.30152 6.12571,11.17156 10.08409,20.11098 15.47841,34.94812 -12.82869,5.82537 -32.74628,13.818 -47.09328,15.894 -30.191,4.37 -54.54574,-4.10026 -80.8951,-23.886 6.021364,-5.92792 7.26344,-6.89212 11.1831,-10.614 12.03424,-11.42701 11.09805,-22.30518 -4.48606,-21.93425 -7.484379,0.17814 -16.063795,0.69734 -21.87714,0.63225 -4.2315,-0.048 -8.687,-0.545 -11.7532,-3.784 -13.4062,-14.16 -19.6762,-63.321 -22.1655,-83.249 -1.123,-8.99 -2.6414,-18.091 -2.443,-27.169 5.416179,0.0912 14.738226,-0.50855 22.869057,-1.77392 10.713921,-1.66736 15.727896,-12.75201 2.793722,-20.39288 C 55.547316,281.60154 47.803677,280.22891 40.428704,277.85301 39.435922,271.39816 24.401934,182.45045 23.8996,162.832 Z"
         id="path2"
         sodipodi:nodetypes="ccssccccaszzzacccssccscsscc"
         style="fill:#49c06e;fill-opacity:1" />
    </g>
    <g
       id="layer3"
       inkscape:label="leaf"
       inkscape:groupmode="layer">
      <path
         fill="#68d675"
         d="m 348.62904,60.100765 c -0.87591,13.416324 -1.90077,22.714102 4.43933,28.537151 13.13789,12.066444 22.86501,-20.76338 30.79537,-33.523953 10.52698,-6.896316 45.49337,-22.695731 64.90291,-20.731965 3.69347,18.682613 -4.79636,50.974041 -7.92587,67.491992 -11.16418,11.04205 -41.99583,27.96553 -28.21318,40.00435 7.41626,6.47793 23.29174,-0.36943 30.26036,-0.50547 -0.0797,27.92767 2.081,89.24619 -4.9851,96.45361 -5.51368,5.62396 -30.21621,13.08547 -42.79718,22.49532 -20.16513,15.08235 -17.27196,30.15952 3.84689,29.26569 6.94148,-0.29376 15.58622,0.14512 32.40567,-3.02088 -0.18321,3.12776 0.94134,29.82081 -20.2949,57.50886 -19.44941,25.35837 -42.33429,41.48117 -75.85585,48.67537 -33.52154,7.19421 -50.87721,7.65153 -66.24889,7.75789 1.61727,-15.70838 -10.08905,-52.24803 -15.85625,-64.51874 10.86361,-18.14309 19.05814,-33.1576 28.36927,-49.14161 9.31114,-15.98402 26.75308,-44.28216 38.9525,-64.81483 12.19941,-20.53267 33.28925,-53.72892 42.38894,-68.25389 19.30849,-30.82028 13.32891,-34.75231 -5.83441,-7.99092 -13.24441,18.49571 -31.62417,45.07069 -46.00947,68.54138 -12.16998,19.97249 -28.39213,48.61293 -39.31559,66.76773 -8.23632,13.68876 -16.56561,29.52315 -25.718,44.53021 -13.0579,-21.92506 -42.97416,-54.986 -57.34536,-66.44701 3.47902,-21.64165 9.62119,-69.86357 23.06303,-86.06241 9.31099,7.84006 12.95194,11.92133 22.47744,19.32381 13.31796,10.34968 26.26236,1.65697 20.50336,-19.56544 -2.87065,-10.57859 -8.88538,-19.81604 -15.46546,-34.26323 -1.5247,-3.3476 11.84265,-21.72465 32.17038,-36.91158 23.42398,-17.50014 61.90004,-34.416578 77.29006,-41.601435 z"
         id="path1"
         sodipodi:nodetypes="cscccscssscszcczzsssscccssssc"
         style="fill:#8dd35f;stroke-width:1.04029" />
    </g>
  </g>
</svg>
