<?xml version="1.0" encoding="UTF-8" standalone="no"?>
<svg
   width="1101"
   height="512"
   version="1.1"
   id="svg6"
   sodipodi:docname="netl_logo.svg"
   inkscape:version="1.4.2 (f4327f4, 2025-05-13)"
   inkscape:export-filename="netl_logo.png"
   inkscape:export-xdpi="96"
   inkscape:export-ydpi="96"
   xmlns:inkscape="http://www.inkscape.org/namespaces/inkscape"
   xmlns:sodipodi="http://sodipodi.sourceforge.net/DTD/sodipodi-0.dtd"
   xmlns="http://www.w3.org/2000/svg"
   xmlns:svg="http://www.w3.org/2000/svg">
  <defs
     id="defs6" />
  <sodipodi:namedview
     id="namedview6"
     pagecolor="#ffffff"
     bordercolor="#000000"
     borderopacity="0.25"
     inkscape:showpageshadow="2"
     inkscape:pageopacity="0.0"
     inkscape:pagecheckerboard="0"
     inkscape:deskcolor="#d1d1d1"
     inkscape:zoom="0.91040265"
     inkscape:cx="545.36309"
     inkscape:cy="419.04535"
     inkscape:window-width="2400"
     inkscape:window-height="1261"
     inkscape:window-x="2391"
     inkscape:window-y="-9"
     inkscape:window-maximized="1"
     inkscape:current-layer="layer3"
     inkscape:export-bgcolor="#ffffffff" />
  <g
     inkscape:groupmode="layer"
     id="layer1"
     inkscape:label="name">
    <path
       d="M 614.43872,156.24513 H 665.2121 V 365.61069 H 617.42539 L 522.44928,240.46922 V 365.61069 H 471.37723 V 156.24513 h 48.08538 l 95.27477,126.03747 z m 166.2733,45.99471 q 39.42404,0 60.62939,23.29603 21.20536,23.29602 21.20536,63.91473 0,6.27201 -0.29867,9.55735 H 749.94932 q 3.88267,13.73868 13.44001,21.20535 9.55734,7.16801 23.29603,7.16801 10.45334,0 20.01068,-4.18134 9.85601,-4.18133 17.92002,-12.24534 l 27.77603,27.77603 q -12.54401,14.03735 -30.46403,21.50402 -17.62135,7.16801 -40.02138,7.16801 -25.98402,0 -45.39738,-10.15468 -19.41335,-10.15468 -29.8667,-28.67203 -10.15468,-18.51735 -10.15468,-43.00805 0,-24.78936 10.45335,-43.60538 10.45334,-19.11469 29.56803,-29.26936 19.11469,-10.45335 44.20272,-10.45335 z m 30.16536,68.39474 q 0,-14.03734 -8.36267,-22.40002 -8.06401,-8.66134 -21.50403,-8.66134 -12.54401,0 -21.20535,8.36267 -8.36268,8.36268 -11.05068,22.69869 z m 187.47908,86.61343 q -8.96001,5.07734 -20.60802,8.06401 -11.64802,2.688 -23.5947,2.688 -23.89336,0 -38.82671,-13.73868 -14.63468,-13.73868 -14.63468,-37.93071 v -69.29074 h -22.40002 v -35.2427 h 22.40002 v -44.80005 h 52.86406 v 44.80005 h 41.81338 v 35.2427 h -41.81338 v 60.92807 q 0,17.02402 14.03735,17.02402 8.66134,0 20.60802,-5.37601 z m 30.38004,-213.24823 h 53.1628 v 221.61091 h -53.1628 z"
       id="text1"
       style="font-weight:bold;font-size:298.667px;line-height:0;font-family:Gontserrat;-inkscape-font-specification:'Gontserrat Bold';letter-spacing:3.5px"
       aria-label="Netl" />
  </g>
  <g
     inkscape:groupmode="layer"
     id="layer2"
     inkscape:label="leaf">
    <path
       fill="#68d675"
       d="m 23.8996,162.832 c 4.6755,2.275 9.1906,5.686 13.5277,8.587 18.232863,12.31336 36.602806,24.42188 54.858306,36.70125 14.616724,9.83179 29.304774,19.57666 43.776394,29.60475 -2.29056,12.04725 -3.21551,19.51299 -3.73728,27.96482 -0.87017,14.09554 8.96583,22.30572 22.9532,9.03137 6.82298,-6.47517 12.54688,-13.19016 16.55708,-19.24019 7.64968,6.62312 41.07471,47.36588 45.803,53.227 23.50343,25.42235 39.59463,51.41942 40.403,86.698 -0.035,22.881 -14.3054,58.47757 -27.4657,65.80395 -5.33907,-11.64632 -11.70085,-25.55551 -18.5963,-37.78195 -8.52344,-15.11305 -18.16671,-29.58868 -28.07331,-43.83342 -10.74913,-15.45621 -22.24654,-30.39175 -33.98725,-45.10888 -5.15055,-6.45628 -10.69101,-12.7431 -15.98155,-18.93396 -6.63773,-8.50033 -15.91368,-3.28546 -8.77163,4.78156 7.174,8.10311 11.57966,13.03835 17.12464,19.76448 12.10176,14.67958 24.31488,29.32273 35.21468,44.91557 10.21102,14.60749 19.5813,29.88591 28.18461,45.43591 6.2174,11.23761 6.97731,12.73236 17.03181,34.55977 -12.82869,5.82537 -33.982,13.818 -48.329,15.894 -30.191,4.37 -54.54574,-4.10026 -80.8951,-23.886 6.021364,-5.92792 7.26344,-6.89212 11.1831,-10.614 12.03424,-11.42701 11.09805,-22.30518 -4.48606,-21.93425 -7.484379,0.17814 -16.063795,0.69734 -21.87714,0.63225 -4.2315,-0.048 -8.687,-0.545 -11.7532,-3.784 -13.4062,-14.16 -19.6762,-63.321 -22.1655,-83.249 -1.123,-8.99 -2.6414,-18.091 -2.443,-27.169 5.416179,0.0912 14.738226,-0.50855 22.869057,-1.77392 10.713921,-1.66736 31.105707,-9.73137 2.793722,-20.39288 -13.120035,-4.94064 -20.088806,-7.1303 -27.463779,-9.5062 -0.504303,-12.01958 -2.617537,-23.8847 -4.1769,-35.79603 -2.679582,-20.46822 -8.8984,-61.286 -8.8984,-61.286 -0.9534,-6.456 -2.37,-12.837 -3.1792,-19.312 z"
       id="path2"
       sodipodi:nodetypes="ccacssccccaaacsaaacccssccscsscacc"
       style="fill:#49c06e;fill-opacity:1" />
  </g>
  <g
     inkscape:groupmode="layer"
     id="layer3"
     inkscape:label="leaf">
    <path
       fill="#68d675"
       d="m 256.887,161.41205 c 1.52811,-18.82204 14.69266,-30.43801 28.35357,-42.27272 15.6747,-13.57929 39.50272,-28.029676 54.95973,-38.097148 -0.80293,5.4159 -2.25175,8.803052 -2.64771,17.138757 -0.48107,10.126661 8.09284,18.061521 17.189,7.010091 14.79742,-17.978223 21.21668,-25.961138 33.20094,-36.941908 11.24927,-10.307327 24.64008,-18.631154 38.15045,-25.999849 7.48326,-4.081449 17.7268,-7.958324 23.54902,-9.967973 0.20895,11.408827 0.0492,21.460672 -0.69484,32.155983 -0.96755,13.907474 -2.06802,27.884386 -4.89516,41.535807 -3.09985,14.96827 -9.03177,33.38408 -13.16156,43.92831 -3.32306,8.48449 -4.50321,14.90364 1.23021,16.6719 3.23138,0.9966 10.16918,-3.60322 17.54843,-8.49566 -2.18331,27.65763 -4.39883,62.46364 -11.60208,89.37036 -5.62777,5.06417 -24.7186,15.66354 -37.05498,24.375 -19.77309,13.96295 -4.36567,17.39789 2.35884,17.22712 6.67644,-0.16956 12.64302,-1.60078 28.88814,-4.20112 -0.899,10.447 -3.611,21.609 -6.309,31.752 -7.447,27.989 -24.395,54.587 -49.815,69.204 -23.668,13.608 -49.247,15.647 -75.928,14.204 -11.127,-0.602 -22.192,-1.621 -32.985,-4.544 -1.316,-14.422 -4.63448,-34.5177 -7.26865,-47.83326 10.49393,-19.98059 15.91237,-32.82457 24.70118,-48.79721 12.02443,-21.85301 24.90962,-43.2402 38.30882,-64.27832 10.60213,-16.64643 21.85779,-32.8746 33.27292,-48.97441 3.97952,-5.61269 8.34343,-10.94812 12.27282,-16.59602 2.98278,-4.28728 7.17367,-9.20654 8.57297,-13.11501 0.84449,-2.35879 -3.2398,-5.33519 -5.70579,-4.89257 -4.51736,0.81082 -7.25727,5.88591 -10.20531,9.78741 -4.98196,6.59324 -10.21041,13.00154 -15.0654,19.68882 -10.68945,14.72368 -21.0575,29.69134 -30.94624,44.96432 -14.54921,22.47099 -29.05497,45.0376 -41.72967,68.61677 -7.64165,14.21601 -13.88102,28.62198 -20.62606,43.8061 -8.14719,-10.67926 -26.81037,-33.55165 -40.67859,-50.14362 -6.45619,-7.13154 -13.51592,-13.62601 -14.137,-23.63 -1.738,-30.498 10.206,-66.349 30.525,-89.297 8.08026,15.88562 11.09773,21.40932 15.78338,26.98515 6.19208,7.36278 13.28021,2.71208 13.0934,-5.85633"
       id="path1"
       sodipodi:nodetypes="cscsssacaassccssccccccaaaasssaaacccccc"
       style="fill:#8dd35f" />
  </g>
</svg>
